<svg width="1290" height="2796" viewBox="0 0 1290 2796" xmlns="http://www.w3.org/2000/svg">
  <defs>
    <linearGradient id="bg" x1="0" y1="0" x2="1" y2="1">
      <stop offset="0%" stop-color="#F7F5EE"/>
      <stop offset="55%" stop-color="#E8EDF6"/>
      <stop offset="100%" stop-color="#DDE6F3"/>
    </linearGradient>
    <linearGradient id="hero" x1="0" y1="0" x2="1" y2="1">
      <stop offset="0%" stop-color="#1E4D87"/>
      <stop offset="100%" stop-color="#0F2745"/>
    </linearGradient>
  </defs>

  <rect width="1290" height="2796" fill="url(#bg)"/>
  <circle cx="1060" cy="520" r="460" fill="#244B7A" opacity="0.09"/>
  <circle cx="120" cy="2560" r="390" fill="#172B45" opacity="0.08"/>

  <rect x="85" y="80" width="1120" height="2636" rx="125" fill="#12161D"/>
  <rect x="112" y="108" width="1066" height="2578" rx="96" fill="#F9FAFC"/>

  <rect x="112" y="108" width="1066" height="280" rx="96" fill="#EFF3F9"/>
  <rect x="464" y="130" width="260" height="42" rx="21" fill="#12161D" opacity="0.9"/>
  <text x="170" y="306" font-size="62" font-family="-apple-system, BlinkMacSystemFont, sans-serif" fill="#162031" font-weight="700">Noah Site</text>

  <rect x="160" y="450" width="970" height="500" rx="36" fill="url(#hero)"/>
  <text x="220" y="605" font-size="66" font-family="-apple-system, BlinkMacSystemFont, sans-serif" fill="#FFFFFF" font-weight="700">noahlucas.com</text>
  <text x="220" y="688" font-size="36" font-family="-apple-system, BlinkMacSystemFont, sans-serif" fill="#E6EFFC">Portfolio, writing, projects, contact</text>

  <rect x="160" y="1010" width="970" height="430" rx="32" fill="#FFFFFF" stroke="#DEE6F1" stroke-width="3"/>
  <text x="210" y="1140" font-size="46" font-family="-apple-system, BlinkMacSystemFont, sans-serif" fill="#1A2C46" font-weight="600">Native iPhone Web App</text>
  <text x="210" y="1210" font-size="32" font-family="-apple-system, BlinkMacSystemFont, sans-serif" fill="#576C87">In-app browser with refresh + share</text>

  <rect x="160" y="1495" width="970" height="430" rx="32" fill="#F8FBFF" stroke="#DFE8F4" stroke-width="3"/>
  <text x="210" y="1625" font-size="46" font-family="-apple-system, BlinkMacSystemFont, sans-serif" fill="#1A2C46" font-weight="600">Fast Launch</text>
  <text x="210" y="1695" font-size="32" font-family="-apple-system, BlinkMacSystemFont, sans-serif" fill="#576C87">Home screen icon opens your site instantly</text>

  <text x="160" y="2640" font-size="28" font-family="-apple-system, BlinkMacSystemFont, sans-serif" fill="#8B97A9">Generated app preview</text>
</svg>
